<?xml version="1.0" encoding="utf-8"?>
<!-- Generator: Adobe Illustrator 21.0.0, SVG Export Plug-In . SVG Version: 6.00 Build 0)  -->
<svg version="1.1" id="Layer_1" xmlns="http://www.w3.org/2000/svg" xmlns:xlink="http://www.w3.org/1999/xlink" x="0px" y="0px"
	 viewBox="179.5 0 52.8 52.8" style="enable-background:new 0 0 232.3 52.8;" xml:space="preserve">
<style type="text/css">
	.st0{fill:#6B11FF;}
	.st1{fill:url(#SVGID_1_);}
	.st2{fill:#FFFFFF;}
</style>
<g>
	<circle class="st0" cx="205.9" cy="26.4" r="26.4"/>
	<linearGradient id="SVGID_1_" gradientUnits="userSpaceOnUse" x1="208.2653" y1="28.497" x2="219.4337" y2="50.2301">
		<stop  offset="0" style="stop-color:#000000;stop-opacity:0.4"/>
		<stop  offset="1" style="stop-color:#000000;stop-opacity:0"/>
	</linearGradient>
	<path class="st1" d="M231.2,34.1L222,20.3l-29.8,16L203,52.7c0.9,0.1,1.9,0.2,2.9,0.2C217.8,52.8,227.9,45,231.2,34.1z"/>
	<g>
		<polygon class="st0" points="206,32.3 215.3,38.7 218.8,33.3 206,24.5 193.3,33.3 196.8,38.7 		"/>
		<polygon class="st0" points="193.3,20.9 196.8,26.3 206,19.9 215.3,26.3 218.8,20.9 206,12.1 		"/>
	</g>
	<path class="st2" d="M206,12.1l12.7,8.8l-3.5,5.3l-9.3-6.3l-9.3,6.4l-3.5-5.4L206,12.1 M206,24.5l12.7,8.8l-3.5,5.3l-9.3-6.3
		l-9.3,6.3l-3.5-5.3L206,24.5 M206,9.2l-1.4,1L191.9,19l-1.9,1.3l1.3,2l3.5,5.4l0.8,1.2l-3.6,2.5l-1.9,1.3l1.3,2l3.5,5.3l1.3,2.1
		l2-1.4l7.9-5.4l7.9,5.4l2,1.4l1.3-2.1l3.5-5.3l1.3-2l-1.9-1.3l-3.6-2.5l0.8-1.3l3.5-5.3l1.3-2l-1.9-1.3l-12.7-8.8L206,9.2L206,9.2z
		"/>
</g>
</svg>
